<?xml version="1.0" encoding="UTF-8"?>
<svg xmlns="http://www.w3.org/2000/svg" xmlns:xlink="http://www.w3.org/1999/xlink" width="50px" height="50px" viewBox="0 0 50 50" version="1.1">
<g id="surface1">
<path style=" stroke:none;fill-rule:evenodd;fill:white;fill-opacity:0.8;" d="M 35.210938 26.375 L 26.375 35.21875 C 26 35.59375 25.484375 35.703125 25 35.609375 C 24.515625 35.703125 24 35.59375 23.625 35.21875 L 14.789062 26.375 C 14.179688 25.765625 14.179688 24.78125 14.789062 24.15625 C 15.398438 23.546875 16.386719 23.546875 17 24.15625 L 23.4375 30.609375 L 23.4375 14.0625 C 23.4375 13.203125 24.136719 12.5 25 12.5 C 25.863281 12.5 26.5625 13.203125 26.5625 14.0625 L 26.5625 30.609375 L 33 24.15625 C 33.613281 23.546875 34.601562 23.546875 35.210938 24.15625 C 35.820312 24.78125 35.820312 25.765625 35.210938 26.375 Z M 25 0 C 11.191406 0 0 11.1875 0 25 C 0 38.8125 11.191406 50 25 50 C 38.808594 50 50 38.8125 50 25 C 50 11.1875 38.808594 0 25 0 Z M 25 0 "/>
</g>
</svg>
