<?xml version="1.0" encoding="UTF-8"?>
<svg xmlns="http://www.w3.org/2000/svg" xmlns:xlink="http://www.w3.org/1999/xlink" width="50px" height="50px" viewBox="0 0 50 50" version="1.1">
<g id="surface1">
<path style=" stroke:none;fill-rule:nonzero;fill:rgb(7.058824%,45.882353%,69.411765%);fill-opacity:1;" d="M 25 3.125 C 37.082031 3.125 46.875 12.917969 46.875 25 C 46.875 37.082031 37.082031 46.875 25 46.875 C 12.917969 46.875 3.125 37.082031 3.125 25 C 3.125 12.917969 12.917969 3.125 25 3.125 Z M 25 3.125 "/>
<path style=" stroke:none;fill-rule:nonzero;fill:rgb(100%,100%,100%);fill-opacity:1;" d="M 19.714844 15.144531 C 19.714844 16.605469 18.449219 17.789062 16.890625 17.789062 C 15.328125 17.789062 14.0625 16.605469 14.0625 15.144531 C 14.0625 13.683594 15.328125 12.5 16.890625 12.5 C 18.449219 12.5 19.714844 13.683594 19.714844 15.144531 Z M 19.714844 15.144531 "/>
<path style=" stroke:none;fill-rule:nonzero;fill:rgb(100%,100%,100%);fill-opacity:1;" d="M 14.449219 19.730469 L 19.28125 19.730469 L 19.28125 34.375 L 14.449219 34.375 Z M 14.449219 19.730469 "/>
<path style=" stroke:none;fill-rule:nonzero;fill:rgb(100%,100%,100%);fill-opacity:1;" d="M 27.0625 19.730469 L 22.230469 19.730469 L 22.230469 34.375 L 27.0625 34.375 C 27.0625 34.375 27.0625 29.765625 27.0625 26.882812 C 27.0625 25.152344 27.652344 23.414062 30.007812 23.414062 C 32.671875 23.414062 32.65625 25.679688 32.644531 27.433594 C 32.628906 29.726562 32.667969 32.066406 32.667969 34.375 L 37.5 34.375 L 37.5 26.644531 C 37.460938 21.710938 36.171875 19.4375 31.941406 19.4375 C 29.429688 19.4375 27.871094 20.578125 27.0625 21.609375 Z M 27.0625 19.730469 "/>
</g>
</svg>
